<mxfile host="app.diagrams.net" modified="2023-09-19T12:30:00.324Z" agent="Mozilla/5.0 (Windows NT 10.0; Win64; x64) AppleWebKit/537.36 (KHTML, like Gecko) Chrome/116.0.0.0 Safari/537.36" etag="j2y9YCzepW0WTnqTc6Cj" version="21.7.5" type="device">
  <diagram name="Page-1" id="quYeE3zfHDCTxrddupW8">
    <mxGraphModel dx="2591" dy="1044" grid="1" gridSize="10" guides="1" tooltips="1" connect="1" arrows="1" fold="1" page="1" pageScale="1" pageWidth="827" pageHeight="1169" math="0" shadow="0">
      <root>
        <mxCell id="0" />
        <mxCell id="1" parent="0" />
        <mxCell id="dwVJ0I9rL3pQP1CKL2zO-11" style="edgeStyle=orthogonalEdgeStyle;rounded=0;orthogonalLoop=1;jettySize=auto;html=1;exitX=1;exitY=1;exitDx=0;exitDy=0;entryX=0.5;entryY=0;entryDx=0;entryDy=0;" edge="1" parent="1" source="dwVJ0I9rL3pQP1CKL2zO-1" target="dwVJ0I9rL3pQP1CKL2zO-9">
          <mxGeometry relative="1" as="geometry" />
        </mxCell>
        <mxCell id="dwVJ0I9rL3pQP1CKL2zO-12" style="edgeStyle=orthogonalEdgeStyle;rounded=0;orthogonalLoop=1;jettySize=auto;html=1;exitX=0.75;exitY=1;exitDx=0;exitDy=0;entryX=0.5;entryY=0;entryDx=0;entryDy=0;" edge="1" parent="1" source="dwVJ0I9rL3pQP1CKL2zO-1" target="dwVJ0I9rL3pQP1CKL2zO-2">
          <mxGeometry relative="1" as="geometry" />
        </mxCell>
        <mxCell id="dwVJ0I9rL3pQP1CKL2zO-13" style="edgeStyle=orthogonalEdgeStyle;rounded=0;orthogonalLoop=1;jettySize=auto;html=1;exitX=0.5;exitY=1;exitDx=0;exitDy=0;entryX=0.5;entryY=0;entryDx=0;entryDy=0;" edge="1" parent="1" source="dwVJ0I9rL3pQP1CKL2zO-1" target="dwVJ0I9rL3pQP1CKL2zO-7">
          <mxGeometry relative="1" as="geometry" />
        </mxCell>
        <mxCell id="dwVJ0I9rL3pQP1CKL2zO-14" style="edgeStyle=orthogonalEdgeStyle;rounded=0;orthogonalLoop=1;jettySize=auto;html=1;exitX=0;exitY=1;exitDx=0;exitDy=0;entryX=0.5;entryY=0;entryDx=0;entryDy=0;" edge="1" parent="1" source="dwVJ0I9rL3pQP1CKL2zO-1" target="dwVJ0I9rL3pQP1CKL2zO-8">
          <mxGeometry relative="1" as="geometry" />
        </mxCell>
        <mxCell id="dwVJ0I9rL3pQP1CKL2zO-1" value="Input Valuta" style="rounded=0;whiteSpace=wrap;html=1;" vertex="1" parent="1">
          <mxGeometry x="340" y="380" width="120" height="60" as="geometry" />
        </mxCell>
        <mxCell id="dwVJ0I9rL3pQP1CKL2zO-38" style="edgeStyle=orthogonalEdgeStyle;rounded=0;orthogonalLoop=1;jettySize=auto;html=1;exitX=0.5;exitY=1;exitDx=0;exitDy=0;entryX=0.5;entryY=0;entryDx=0;entryDy=0;" edge="1" parent="1" source="dwVJ0I9rL3pQP1CKL2zO-2" target="dwVJ0I9rL3pQP1CKL2zO-29">
          <mxGeometry relative="1" as="geometry" />
        </mxCell>
        <mxCell id="dwVJ0I9rL3pQP1CKL2zO-2" value="Valuta lik 1" style="rhombus;whiteSpace=wrap;html=1;" vertex="1" parent="1">
          <mxGeometry x="470" y="520" width="80" height="80" as="geometry" />
        </mxCell>
        <mxCell id="dwVJ0I9rL3pQP1CKL2zO-4" value="False" style="edgeStyle=orthogonalEdgeStyle;rounded=0;orthogonalLoop=1;jettySize=auto;html=1;entryX=0.5;entryY=0;entryDx=0;entryDy=0;" edge="1" parent="1" source="dwVJ0I9rL3pQP1CKL2zO-3" target="dwVJ0I9rL3pQP1CKL2zO-1">
          <mxGeometry relative="1" as="geometry" />
        </mxCell>
        <mxCell id="dwVJ0I9rL3pQP1CKL2zO-42" value="True" style="edgeStyle=orthogonalEdgeStyle;rounded=0;orthogonalLoop=1;jettySize=auto;html=1;exitX=0.5;exitY=1;exitDx=0;exitDy=0;entryX=0.5;entryY=0;entryDx=0;entryDy=0;" edge="1" parent="1" source="dwVJ0I9rL3pQP1CKL2zO-3" target="dwVJ0I9rL3pQP1CKL2zO-41">
          <mxGeometry relative="1" as="geometry">
            <Array as="points">
              <mxPoint x="-130" y="330" />
              <mxPoint x="-130" y="1169" />
            </Array>
          </mxGeometry>
        </mxCell>
        <mxCell id="dwVJ0I9rL3pQP1CKL2zO-3" value="Valuta lik 4" style="rhombus;whiteSpace=wrap;html=1;" vertex="1" parent="1">
          <mxGeometry x="360" y="260" width="80" height="70" as="geometry" />
        </mxCell>
        <mxCell id="dwVJ0I9rL3pQP1CKL2zO-6" style="edgeStyle=orthogonalEdgeStyle;rounded=0;orthogonalLoop=1;jettySize=auto;html=1;" edge="1" parent="1" source="dwVJ0I9rL3pQP1CKL2zO-5" target="dwVJ0I9rL3pQP1CKL2zO-3">
          <mxGeometry relative="1" as="geometry" />
        </mxCell>
        <mxCell id="dwVJ0I9rL3pQP1CKL2zO-5" value="Start" style="ellipse;whiteSpace=wrap;html=1;" vertex="1" parent="1">
          <mxGeometry x="355" y="180" width="90" height="30" as="geometry" />
        </mxCell>
        <mxCell id="dwVJ0I9rL3pQP1CKL2zO-39" style="edgeStyle=orthogonalEdgeStyle;rounded=0;orthogonalLoop=1;jettySize=auto;html=1;exitX=0.5;exitY=1;exitDx=0;exitDy=0;entryX=0.5;entryY=0;entryDx=0;entryDy=0;" edge="1" parent="1" source="dwVJ0I9rL3pQP1CKL2zO-7" target="dwVJ0I9rL3pQP1CKL2zO-24">
          <mxGeometry relative="1" as="geometry" />
        </mxCell>
        <mxCell id="dwVJ0I9rL3pQP1CKL2zO-7" value="Valuta lik 1" style="rhombus;whiteSpace=wrap;html=1;" vertex="1" parent="1">
          <mxGeometry x="275" y="520" width="80" height="80" as="geometry" />
        </mxCell>
        <mxCell id="dwVJ0I9rL3pQP1CKL2zO-40" style="edgeStyle=orthogonalEdgeStyle;rounded=0;orthogonalLoop=1;jettySize=auto;html=1;exitX=0.5;exitY=1;exitDx=0;exitDy=0;entryX=0.5;entryY=0;entryDx=0;entryDy=0;" edge="1" parent="1" source="dwVJ0I9rL3pQP1CKL2zO-8" target="dwVJ0I9rL3pQP1CKL2zO-16">
          <mxGeometry relative="1" as="geometry" />
        </mxCell>
        <mxCell id="dwVJ0I9rL3pQP1CKL2zO-8" value="Valuta lik 1" style="rhombus;whiteSpace=wrap;html=1;" vertex="1" parent="1">
          <mxGeometry x="110" y="520" width="80" height="80" as="geometry" />
        </mxCell>
        <mxCell id="dwVJ0I9rL3pQP1CKL2zO-10" style="edgeStyle=orthogonalEdgeStyle;rounded=0;orthogonalLoop=1;jettySize=auto;html=1;entryX=1;entryY=0.5;entryDx=0;entryDy=0;" edge="1" parent="1" source="dwVJ0I9rL3pQP1CKL2zO-9" target="dwVJ0I9rL3pQP1CKL2zO-3">
          <mxGeometry relative="1" as="geometry">
            <Array as="points">
              <mxPoint x="690" y="510" />
              <mxPoint x="690" y="295" />
            </Array>
          </mxGeometry>
        </mxCell>
        <mxCell id="dwVJ0I9rL3pQP1CKL2zO-37" style="edgeStyle=orthogonalEdgeStyle;rounded=0;orthogonalLoop=1;jettySize=auto;html=1;exitX=0.5;exitY=1;exitDx=0;exitDy=0;entryX=0.5;entryY=0;entryDx=0;entryDy=0;" edge="1" parent="1" source="dwVJ0I9rL3pQP1CKL2zO-9" target="dwVJ0I9rL3pQP1CKL2zO-34">
          <mxGeometry relative="1" as="geometry" />
        </mxCell>
        <mxCell id="dwVJ0I9rL3pQP1CKL2zO-9" value="else" style="rhombus;whiteSpace=wrap;html=1;" vertex="1" parent="1">
          <mxGeometry x="620" y="520" width="80" height="80" as="geometry" />
        </mxCell>
        <mxCell id="dwVJ0I9rL3pQP1CKL2zO-18" value="1" style="edgeStyle=orthogonalEdgeStyle;rounded=0;orthogonalLoop=1;jettySize=auto;html=1;exitX=0;exitY=0.5;exitDx=0;exitDy=0;entryX=0.5;entryY=0;entryDx=0;entryDy=0;" edge="1" parent="1" source="dwVJ0I9rL3pQP1CKL2zO-16" target="dwVJ0I9rL3pQP1CKL2zO-17">
          <mxGeometry relative="1" as="geometry" />
        </mxCell>
        <mxCell id="dwVJ0I9rL3pQP1CKL2zO-21" style="edgeStyle=orthogonalEdgeStyle;rounded=0;orthogonalLoop=1;jettySize=auto;html=1;exitX=1;exitY=0.5;exitDx=0;exitDy=0;entryX=0.5;entryY=0;entryDx=0;entryDy=0;" edge="1" parent="1" source="dwVJ0I9rL3pQP1CKL2zO-16" target="dwVJ0I9rL3pQP1CKL2zO-20">
          <mxGeometry relative="1" as="geometry" />
        </mxCell>
        <mxCell id="dwVJ0I9rL3pQP1CKL2zO-16" value="to_or_from" style="rhombus;whiteSpace=wrap;html=1;" vertex="1" parent="1">
          <mxGeometry x="110" y="640" width="80" height="80" as="geometry" />
        </mxCell>
        <mxCell id="dwVJ0I9rL3pQP1CKL2zO-44" style="edgeStyle=orthogonalEdgeStyle;rounded=0;orthogonalLoop=1;jettySize=auto;html=1;exitX=0.5;exitY=1;exitDx=0;exitDy=0;entryX=0.5;entryY=0;entryDx=0;entryDy=0;" edge="1" parent="1" source="dwVJ0I9rL3pQP1CKL2zO-17" target="dwVJ0I9rL3pQP1CKL2zO-20">
          <mxGeometry relative="1" as="geometry">
            <Array as="points">
              <mxPoint x="70" y="1050" />
              <mxPoint x="400" y="1050" />
            </Array>
          </mxGeometry>
        </mxCell>
        <mxCell id="dwVJ0I9rL3pQP1CKL2zO-17" value="beregn og skriv ut svar" style="rounded=0;whiteSpace=wrap;html=1;" vertex="1" parent="1">
          <mxGeometry x="10" y="780" width="120" height="40" as="geometry" />
        </mxCell>
        <mxCell id="dwVJ0I9rL3pQP1CKL2zO-49" style="edgeStyle=orthogonalEdgeStyle;rounded=0;orthogonalLoop=1;jettySize=auto;html=1;exitX=0.5;exitY=1;exitDx=0;exitDy=0;entryX=0.558;entryY=0.262;entryDx=0;entryDy=0;entryPerimeter=0;" edge="1" parent="1" source="dwVJ0I9rL3pQP1CKL2zO-20" target="dwVJ0I9rL3pQP1CKL2zO-3">
          <mxGeometry relative="1" as="geometry">
            <Array as="points">
              <mxPoint x="400" y="1150" />
              <mxPoint x="820" y="1150" />
              <mxPoint x="820" y="260" />
              <mxPoint x="404" y="260" />
            </Array>
          </mxGeometry>
        </mxCell>
        <mxCell id="dwVJ0I9rL3pQP1CKL2zO-20" value="beregn og skriv ut svar" style="rounded=0;whiteSpace=wrap;html=1;" vertex="1" parent="1">
          <mxGeometry x="340" y="1090" width="120" height="40" as="geometry" />
        </mxCell>
        <mxCell id="dwVJ0I9rL3pQP1CKL2zO-22" value="1" style="edgeStyle=orthogonalEdgeStyle;rounded=0;orthogonalLoop=1;jettySize=auto;html=1;exitX=0;exitY=0.5;exitDx=0;exitDy=0;entryX=0.5;entryY=0;entryDx=0;entryDy=0;" edge="1" parent="1" source="dwVJ0I9rL3pQP1CKL2zO-24" target="dwVJ0I9rL3pQP1CKL2zO-25">
          <mxGeometry relative="1" as="geometry" />
        </mxCell>
        <mxCell id="dwVJ0I9rL3pQP1CKL2zO-23" style="edgeStyle=orthogonalEdgeStyle;rounded=0;orthogonalLoop=1;jettySize=auto;html=1;exitX=1;exitY=0.5;exitDx=0;exitDy=0;entryX=0.5;entryY=0;entryDx=0;entryDy=0;" edge="1" parent="1" source="dwVJ0I9rL3pQP1CKL2zO-24" target="dwVJ0I9rL3pQP1CKL2zO-26">
          <mxGeometry relative="1" as="geometry" />
        </mxCell>
        <mxCell id="dwVJ0I9rL3pQP1CKL2zO-24" value="to_or_from" style="rhombus;whiteSpace=wrap;html=1;" vertex="1" parent="1">
          <mxGeometry x="275" y="830" width="80" height="80" as="geometry" />
        </mxCell>
        <mxCell id="dwVJ0I9rL3pQP1CKL2zO-45" style="edgeStyle=orthogonalEdgeStyle;rounded=0;orthogonalLoop=1;jettySize=auto;html=1;exitX=0.5;exitY=1;exitDx=0;exitDy=0;" edge="1" parent="1" source="dwVJ0I9rL3pQP1CKL2zO-25">
          <mxGeometry relative="1" as="geometry">
            <mxPoint x="400.00000000000045" y="1090" as="targetPoint" />
          </mxGeometry>
        </mxCell>
        <mxCell id="dwVJ0I9rL3pQP1CKL2zO-25" value="beregn og skriv ut svar" style="rounded=0;whiteSpace=wrap;html=1;" vertex="1" parent="1">
          <mxGeometry x="175" y="970" width="120" height="40" as="geometry" />
        </mxCell>
        <mxCell id="dwVJ0I9rL3pQP1CKL2zO-46" style="edgeStyle=orthogonalEdgeStyle;rounded=0;orthogonalLoop=1;jettySize=auto;html=1;exitX=0.5;exitY=1;exitDx=0;exitDy=0;" edge="1" parent="1" source="dwVJ0I9rL3pQP1CKL2zO-26">
          <mxGeometry relative="1" as="geometry">
            <mxPoint x="395.5" y="1090" as="targetPoint" />
          </mxGeometry>
        </mxCell>
        <mxCell id="dwVJ0I9rL3pQP1CKL2zO-26" value="beregn og skriv ut svar" style="rounded=0;whiteSpace=wrap;html=1;" vertex="1" parent="1">
          <mxGeometry x="335" y="970" width="120" height="40" as="geometry" />
        </mxCell>
        <mxCell id="dwVJ0I9rL3pQP1CKL2zO-27" value="1" style="edgeStyle=orthogonalEdgeStyle;rounded=0;orthogonalLoop=1;jettySize=auto;html=1;exitX=0;exitY=0.5;exitDx=0;exitDy=0;entryX=0.5;entryY=0;entryDx=0;entryDy=0;" edge="1" parent="1" source="dwVJ0I9rL3pQP1CKL2zO-29" target="dwVJ0I9rL3pQP1CKL2zO-30">
          <mxGeometry relative="1" as="geometry" />
        </mxCell>
        <mxCell id="dwVJ0I9rL3pQP1CKL2zO-28" style="edgeStyle=orthogonalEdgeStyle;rounded=0;orthogonalLoop=1;jettySize=auto;html=1;exitX=1;exitY=0.5;exitDx=0;exitDy=0;entryX=0.5;entryY=0;entryDx=0;entryDy=0;" edge="1" parent="1" source="dwVJ0I9rL3pQP1CKL2zO-29" target="dwVJ0I9rL3pQP1CKL2zO-31">
          <mxGeometry relative="1" as="geometry" />
        </mxCell>
        <mxCell id="dwVJ0I9rL3pQP1CKL2zO-29" value="to_or_from" style="rhombus;whiteSpace=wrap;html=1;" vertex="1" parent="1">
          <mxGeometry x="470" y="640" width="80" height="80" as="geometry" />
        </mxCell>
        <mxCell id="dwVJ0I9rL3pQP1CKL2zO-30" value="beregn og skriv ut svar" style="rounded=0;whiteSpace=wrap;html=1;" vertex="1" parent="1">
          <mxGeometry x="370" y="780" width="120" height="40" as="geometry" />
        </mxCell>
        <mxCell id="dwVJ0I9rL3pQP1CKL2zO-31" value="beregn og skriv ut svar" style="rounded=0;whiteSpace=wrap;html=1;" vertex="1" parent="1">
          <mxGeometry x="530" y="780" width="120" height="40" as="geometry" />
        </mxCell>
        <mxCell id="dwVJ0I9rL3pQP1CKL2zO-32" value="1" style="edgeStyle=orthogonalEdgeStyle;rounded=0;orthogonalLoop=1;jettySize=auto;html=1;exitX=0;exitY=0.5;exitDx=0;exitDy=0;entryX=0.5;entryY=0;entryDx=0;entryDy=0;" edge="1" parent="1" source="dwVJ0I9rL3pQP1CKL2zO-34" target="dwVJ0I9rL3pQP1CKL2zO-35">
          <mxGeometry relative="1" as="geometry" />
        </mxCell>
        <mxCell id="dwVJ0I9rL3pQP1CKL2zO-33" style="edgeStyle=orthogonalEdgeStyle;rounded=0;orthogonalLoop=1;jettySize=auto;html=1;exitX=1;exitY=0.5;exitDx=0;exitDy=0;entryX=0.5;entryY=0;entryDx=0;entryDy=0;" edge="1" parent="1" source="dwVJ0I9rL3pQP1CKL2zO-34" target="dwVJ0I9rL3pQP1CKL2zO-36">
          <mxGeometry relative="1" as="geometry" />
        </mxCell>
        <mxCell id="dwVJ0I9rL3pQP1CKL2zO-34" value="to_or_from" style="rhombus;whiteSpace=wrap;html=1;" vertex="1" parent="1">
          <mxGeometry x="620" y="820" width="80" height="80" as="geometry" />
        </mxCell>
        <mxCell id="dwVJ0I9rL3pQP1CKL2zO-47" style="edgeStyle=orthogonalEdgeStyle;rounded=0;orthogonalLoop=1;jettySize=auto;html=1;exitX=0.5;exitY=1;exitDx=0;exitDy=0;entryX=0.5;entryY=0;entryDx=0;entryDy=0;" edge="1" parent="1" source="dwVJ0I9rL3pQP1CKL2zO-35" target="dwVJ0I9rL3pQP1CKL2zO-20">
          <mxGeometry relative="1" as="geometry" />
        </mxCell>
        <mxCell id="dwVJ0I9rL3pQP1CKL2zO-35" value="beregn og skriv ut svar" style="rounded=0;whiteSpace=wrap;html=1;" vertex="1" parent="1">
          <mxGeometry x="520" y="960" width="120" height="40" as="geometry" />
        </mxCell>
        <mxCell id="dwVJ0I9rL3pQP1CKL2zO-48" style="edgeStyle=orthogonalEdgeStyle;rounded=0;orthogonalLoop=1;jettySize=auto;html=1;exitX=0.5;exitY=1;exitDx=0;exitDy=0;" edge="1" parent="1" source="dwVJ0I9rL3pQP1CKL2zO-36">
          <mxGeometry relative="1" as="geometry">
            <mxPoint x="400.00000000000045" y="1090" as="targetPoint" />
          </mxGeometry>
        </mxCell>
        <mxCell id="dwVJ0I9rL3pQP1CKL2zO-36" value="beregn og skriv ut svar" style="rounded=0;whiteSpace=wrap;html=1;" vertex="1" parent="1">
          <mxGeometry x="680" y="960" width="120" height="40" as="geometry" />
        </mxCell>
        <mxCell id="dwVJ0I9rL3pQP1CKL2zO-41" value="Stop&lt;br&gt;" style="ellipse;whiteSpace=wrap;html=1;" vertex="1" parent="1">
          <mxGeometry x="340" y="1220" width="120" height="50" as="geometry" />
        </mxCell>
        <mxCell id="dwVJ0I9rL3pQP1CKL2zO-43" value="Skriv ut svar" style="rounded=0;whiteSpace=wrap;html=1;" vertex="1" parent="1">
          <mxGeometry x="220" y="740" width="120" height="30" as="geometry" />
        </mxCell>
      </root>
    </mxGraphModel>
  </diagram>
</mxfile>
